<?xml version="1.0" encoding="UTF-8"?>
<svg xmlns="http://www.w3.org/2000/svg" viewBox="0 0 4.328 4.758">
  <defs>
    <style>
      .cls-10 {
        fill: none;
        stroke-miterlimit: 10;
        stroke-width: .25px;
      }
    </style>
  </defs>
  <path class="cls-10" d="M2.2756,2.9838l-.7673,1.4444c-.0698.1304-.0997.1906-.1395.2006-.0299.01-.0698,0-.0997-.01-.0299-.0201-.0498-.0903-.0897-.2307L.1629.4159c-.0299-.1304-.0498-.1906-.0299-.2307.0199-.0301.0399-.0502.0797-.0602.0399,0,.0997.0201.2093.0802l3.5776,1.946c.1296.0702.1893.1003.1993.1404.01.0301,0,.0702-.01.1003-.0199.0301-.0897.0502-.2292.0903l-1.5745.4012h0"/>
  <path class="cls-10" d="M2.261,3.0406c0-.093.0848-.1683.1897-.1683"/>
</svg>