<?xml version="1.0" encoding="UTF-8"?><svg id="Layer_1" xmlns="http://www.w3.org/2000/svg" viewBox="0 0 4.08 4.75" width="24" height="24"><defs><style>.cls-1{fill:#fff;stroke:#000;stroke-linecap:round;stroke-linejoin:round;stroke-width:.25px;}.cls-2{fill:none;stroke:#fff;stroke-miterlimit:10;stroke-width:.51px;}</style></defs><path class="cls-1" d="M.89,2.25v.63M.89,2.25V.75c0-.21.17-.38.38-.38s.38.17.38.38M.89,2.25c0-.21-.17-.37-.38-.37s-.38.17-.38.37v.5c0,1.04.86,1.87,1.91,1.87s1.91-.84,1.91-1.87v-1.25c0-.21-.17-.38-.38-.38s-.38.17-.38.38M1.66.75v1.38M1.66.75v-.25c0-.21.17-.38.38-.38s.38.17.38.38v.25M2.42.75v1.38M2.42.75c0-.21.17-.38.38-.38s.38.17.38.38v.75M3.19,1.5v.63"/><line class="cls-2" x1="2.8" y1=".77" x2="2.8" y2="2.03"/><line class="cls-2" x1="2.04" y1=".64" x2="2.04" y2="2.02"/><line class="cls-2" x1="1.27" y1=".84" x2="1.27" y2="2.29"/></svg>